<?xml version="1.0" standalone="no"?>
<!DOCTYPE svg PUBLIC "-//W3C//DTD SVG 1.1//EN" "http://www.w3.org/Graphics/SVG/1.1/DTD/svg11.dtd">
<svg version="1.1" width="1200" height="662" onload="init(evt)" viewBox="0 0 1200 662" xmlns="http://www.w3.org/2000/svg" xmlns:xlink="http://www.w3.org/1999/xlink">
<!-- Flame graph stack visualization. See https://github.com/brendangregg/FlameGraph for latest version, and http://www.brendangregg.com/flamegraphs.html for examples. -->
<!-- NOTES:  -->
<defs>
	<linearGradient id="background" y1="0" y2="1" x1="0" x2="0" >
		<stop stop-color="#eeeeee" offset="5%" />
		<stop stop-color="#eeeeb0" offset="95%" />
	</linearGradient>
</defs>
<style type="text/css">
	text { font-family:Verdana; font-size:12px; fill:rgb(0,0,0); }
	#search, #ignorecase { opacity:0.1; cursor:pointer; }
	#search:hover, #search.show, #ignorecase:hover, #ignorecase.show { opacity:1; }
	#subtitle { text-anchor:middle; font-color:rgb(160,160,160); }
	#title { text-anchor:middle; font-size:17px}
	#unzoom { cursor:pointer; }
	#frames > *:hover { stroke:black; stroke-width:0.5; cursor:pointer; }
	.hide { display:none; }
	.parent { opacity:0.5; }
</style>
<script type="text/ecmascript">
<![CDATA[
	"use strict";
	var details, searchbtn, unzoombtn, matchedtxt, svg, searching, currentSearchTerm, ignorecase, ignorecaseBtn;
	function init(evt) {
		details = document.getElementById("details").firstChild;
		searchbtn = document.getElementById("search");
		ignorecaseBtn = document.getElementById("ignorecase");
		unzoombtn = document.getElementById("unzoom");
		matchedtxt = document.getElementById("matched");
		svg = document.getElementsByTagName("svg")[0];
		searching = 0;
		currentSearchTerm = null;

		// use GET parameters to restore a flamegraphs state.
		var params = get_params();
		if (params.x && params.y)
			zoom(find_group(document.querySelector('[x="' + params.x + '"][y="' + params.y + '"]')));
                if (params.s) search(params.s);
	}

	// event listeners
	window.addEventListener("click", function(e) {
		var target = find_group(e.target);
		if (target) {
			if (target.nodeName == "a") {
				if (e.ctrlKey === false) return;
				e.preventDefault();
			}
			if (target.classList.contains("parent")) unzoom(true);
			zoom(target);
			if (!document.querySelector('.parent')) {
				// we have basically done a clearzoom so clear the url
				var params = get_params();
				if (params.x) delete params.x;
				if (params.y) delete params.y;
				history.replaceState(null, null, parse_params(params));
				unzoombtn.classList.add("hide");
				return;
			}

			// set parameters for zoom state
			var el = target.querySelector("rect");
			if (el && el.attributes && el.attributes.y && el.attributes._orig_x) {
				var params = get_params()
				params.x = el.attributes._orig_x.value;
				params.y = el.attributes.y.value;
				history.replaceState(null, null, parse_params(params));
			}
		}
		else if (e.target.id == "unzoom") clearzoom();
		else if (e.target.id == "search") search_prompt();
		else if (e.target.id == "ignorecase") toggle_ignorecase();
	}, false)

	// mouse-over for info
	// show
	window.addEventListener("mouseover", function(e) {
		var target = find_group(e.target);
		if (target) details.nodeValue = "Function: " + g_to_text(target);
	}, false)

	// clear
	window.addEventListener("mouseout", function(e) {
		var target = find_group(e.target);
		if (target) details.nodeValue = ' ';
	}, false)

	// ctrl-F for search
	// ctrl-I to toggle case-sensitive search
	window.addEventListener("keydown",function (e) {
		if (e.keyCode === 114 || (e.ctrlKey && e.keyCode === 70)) {
			e.preventDefault();
			search_prompt();
		}
		else if (e.ctrlKey && e.keyCode === 73) {
			e.preventDefault();
			toggle_ignorecase();
		}
	}, false)

	// functions
	function get_params() {
		var params = {};
		var paramsarr = window.location.search.substr(1).split('&');
		for (var i = 0; i < paramsarr.length; ++i) {
			var tmp = paramsarr[i].split("=");
			if (!tmp[0] || !tmp[1]) continue;
			params[tmp[0]]  = decodeURIComponent(tmp[1]);
		}
		return params;
	}
	function parse_params(params) {
		var uri = "?";
		for (var key in params) {
			uri += key + '=' + encodeURIComponent(params[key]) + '&';
		}
		if (uri.slice(-1) == "&")
			uri = uri.substring(0, uri.length - 1);
		if (uri == '?')
			uri = window.location.href.split('?')[0];
		return uri;
	}
	function find_child(node, selector) {
		var children = node.querySelectorAll(selector);
		if (children.length) return children[0];
	}
	function find_group(node) {
		var parent = node.parentElement;
		if (!parent) return;
		if (parent.id == "frames") return node;
		return find_group(parent);
	}
	function orig_save(e, attr, val) {
		if (e.attributes["_orig_" + attr] != undefined) return;
		if (e.attributes[attr] == undefined) return;
		if (val == undefined) val = e.attributes[attr].value;
		e.setAttribute("_orig_" + attr, val);
	}
	function orig_load(e, attr) {
		if (e.attributes["_orig_"+attr] == undefined) return;
		e.attributes[attr].value = e.attributes["_orig_" + attr].value;
		e.removeAttribute("_orig_"+attr);
	}
	function g_to_text(e) {
		var text = find_child(e, "title").firstChild.nodeValue;
		return (text)
	}
	function g_to_func(e) {
		var func = g_to_text(e);
		// if there's any manipulation we want to do to the function
		// name before it's searched, do it here before returning.
		return (func);
	}
	function update_text(e) {
		var r = find_child(e, "rect");
		var t = find_child(e, "text");
		var w = parseFloat(r.attributes.width.value) -3;
		var txt = find_child(e, "title").textContent.replace(/\([^(]*\)$/,"");
		t.attributes.x.value = parseFloat(r.attributes.x.value) + 3;

		// Smaller than this size won't fit anything
		if (w < 2 * 12 * 0.59) {
			t.textContent = "";
			return;
		}

		t.textContent = txt;
		var sl = t.getSubStringLength(0, txt.length);
		// check if only whitespace or if we can fit the entire string into width w
		if (/^ *$/.test(txt) || sl < w)
			return;

		// this isn't perfect, but gives a good starting point
		// and avoids calling getSubStringLength too often
		var start = Math.floor((w/sl) * txt.length);
		for (var x = start; x > 0; x = x-2) {
			if (t.getSubStringLength(0, x + 2) <= w) {
				t.textContent = txt.substring(0, x) + "..";
				return;
			}
		}
		t.textContent = "";
	}

	// zoom
	function zoom_reset(e) {
		if (e.attributes != undefined) {
			orig_load(e, "x");
			orig_load(e, "width");
		}
		if (e.childNodes == undefined) return;
		for (var i = 0, c = e.childNodes; i < c.length; i++) {
			zoom_reset(c[i]);
		}
	}
	function zoom_child(e, x, ratio) {
		if (e.attributes != undefined) {
			if (e.attributes.x != undefined) {
				orig_save(e, "x");
				e.attributes.x.value = (parseFloat(e.attributes.x.value) - x - 10) * ratio + 10;
				if (e.tagName == "text")
					e.attributes.x.value = find_child(e.parentNode, "rect[x]").attributes.x.value + 3;
			}
			if (e.attributes.width != undefined) {
				orig_save(e, "width");
				e.attributes.width.value = parseFloat(e.attributes.width.value) * ratio;
			}
		}

		if (e.childNodes == undefined) return;
		for (var i = 0, c = e.childNodes; i < c.length; i++) {
			zoom_child(c[i], x - 10, ratio);
		}
	}
	function zoom_parent(e) {
		if (e.attributes) {
			if (e.attributes.x != undefined) {
				orig_save(e, "x");
				e.attributes.x.value = 10;
			}
			if (e.attributes.width != undefined) {
				orig_save(e, "width");
				e.attributes.width.value = parseInt(svg.width.baseVal.value) - (10 * 2);
			}
		}
		if (e.childNodes == undefined) return;
		for (var i = 0, c = e.childNodes; i < c.length; i++) {
			zoom_parent(c[i]);
		}
	}
	function zoom(node) {
		var attr = find_child(node, "rect").attributes;
		var width = parseFloat(attr.width.value);
		var xmin = parseFloat(attr.x.value);
		var xmax = parseFloat(xmin + width);
		var ymin = parseFloat(attr.y.value);
		var ratio = (svg.width.baseVal.value - 2 * 10) / width;

		// XXX: Workaround for JavaScript float issues (fix me)
		var fudge = 0.0001;

		unzoombtn.classList.remove("hide");

		var el = document.getElementById("frames").children;
		for (var i = 0; i < el.length; i++) {
			var e = el[i];
			var a = find_child(e, "rect").attributes;
			var ex = parseFloat(a.x.value);
			var ew = parseFloat(a.width.value);
			var upstack;
			// Is it an ancestor
			if (0 == 0) {
				upstack = parseFloat(a.y.value) > ymin;
			} else {
				upstack = parseFloat(a.y.value) < ymin;
			}
			if (upstack) {
				// Direct ancestor
				if (ex <= xmin && (ex+ew+fudge) >= xmax) {
					e.classList.add("parent");
					zoom_parent(e);
					update_text(e);
				}
				// not in current path
				else
					e.classList.add("hide");
			}
			// Children maybe
			else {
				// no common path
				if (ex < xmin || ex + fudge >= xmax) {
					e.classList.add("hide");
				}
				else {
					zoom_child(e, xmin, ratio);
					update_text(e);
				}
			}
		}
		search();
	}
	function unzoom(dont_update_text) {
		unzoombtn.classList.add("hide");
		var el = document.getElementById("frames").children;
		for(var i = 0; i < el.length; i++) {
			el[i].classList.remove("parent");
			el[i].classList.remove("hide");
			zoom_reset(el[i]);
			if(!dont_update_text) update_text(el[i]);
		}
		search();
	}
	function clearzoom() {
		unzoom();

		// remove zoom state
		var params = get_params();
		if (params.x) delete params.x;
		if (params.y) delete params.y;
		history.replaceState(null, null, parse_params(params));
	}

	// search
	function toggle_ignorecase() {
		ignorecase = !ignorecase;
		if (ignorecase) {
			ignorecaseBtn.classList.add("show");
		} else {
			ignorecaseBtn.classList.remove("show");
		}
		reset_search();
		search();
	}
	function reset_search() {
		var el = document.querySelectorAll("#frames rect");
		for (var i = 0; i < el.length; i++) {
			orig_load(el[i], "fill")
		}
		var params = get_params();
		delete params.s;
		history.replaceState(null, null, parse_params(params));
	}
	function search_prompt() {
		if (!searching) {
			var term = prompt("Enter a search term (regexp " +
			    "allowed, eg: ^ext4_)"
			    + (ignorecase ? ", ignoring case" : "")
			    + "\nPress Ctrl-i to toggle case sensitivity", "");
			if (term != null) search(term);
		} else {
			reset_search();
			searching = 0;
			currentSearchTerm = null;
			searchbtn.classList.remove("show");
			searchbtn.firstChild.nodeValue = "Search"
			matchedtxt.classList.add("hide");
			matchedtxt.firstChild.nodeValue = ""
		}
	}
	function search(term) {
		if (term) currentSearchTerm = term;
		if (currentSearchTerm === null) return;

		var re = new RegExp(currentSearchTerm, ignorecase ? 'i' : '');
		var el = document.getElementById("frames").children;
		var matches = new Object();
		var maxwidth = 0;
		for (var i = 0; i < el.length; i++) {
			var e = el[i];
			var func = g_to_func(e);
			var rect = find_child(e, "rect");
			if (func == null || rect == null)
				continue;

			// Save max width. Only works as we have a root frame
			var w = parseFloat(rect.attributes.width.value);
			if (w > maxwidth)
				maxwidth = w;

			if (func.match(re)) {
				// highlight
				var x = parseFloat(rect.attributes.x.value);
				orig_save(rect, "fill");
				rect.attributes.fill.value = "rgb(230,0,230)";

				// remember matches
				if (matches[x] == undefined) {
					matches[x] = w;
				} else {
					if (w > matches[x]) {
						// overwrite with parent
						matches[x] = w;
					}
				}
				searching = 1;
			}
		}
		if (!searching)
			return;
		var params = get_params();
		params.s = currentSearchTerm;
		history.replaceState(null, null, parse_params(params));

		searchbtn.classList.add("show");
		searchbtn.firstChild.nodeValue = "Reset Search";

		// calculate percent matched, excluding vertical overlap
		var count = 0;
		var lastx = -1;
		var lastw = 0;
		var keys = Array();
		for (k in matches) {
			if (matches.hasOwnProperty(k))
				keys.push(k);
		}
		// sort the matched frames by their x location
		// ascending, then width descending
		keys.sort(function(a, b){
			return a - b;
		});
		// Step through frames saving only the biggest bottom-up frames
		// thanks to the sort order. This relies on the tree property
		// where children are always smaller than their parents.
		var fudge = 0.0001;	// JavaScript floating point
		for (var k in keys) {
			var x = parseFloat(keys[k]);
			var w = matches[keys[k]];
			if (x >= lastx + lastw - fudge) {
				count += w;
				lastx = x;
				lastw = w;
			}
		}
		// display matched percent
		matchedtxt.classList.remove("hide");
		var pct = 100 * count / maxwidth;
		if (pct != 100) pct = pct.toFixed(1)
		matchedtxt.firstChild.nodeValue = "Matched: " + pct + "%";
	}
]]>
</script>
<rect x="0.0" y="0" width="1200.0" height="662.0" fill="url(#background)"  />
<text id="title" x="600.00" y="24" >io_uring Shared Ring Evaluation Profile</text>
<text id="details" x="10.00" y="645" > </text>
<text id="unzoom" x="10.00" y="24" class="hide">Reset Zoom</text>
<text id="search" x="1090.00" y="24" >Search</text>
<text id="ignorecase" x="1174.00" y="24" >ic</text>
<text id="matched" x="1090.00" y="645" > </text>
<g id="frames">
<g >
<title>sysvec_apic_timer_interrupt (8,446,050 samples, 4.93%)</title><rect x="995.0" y="117" width="58.2" height="15.0" fill="rgb(220,69,16)" rx="2" ry="2" />
<text  x="997.95" y="127.5" >sysvec..</text>
</g>
<g >
<title>_dl_catch_error (18,196,017 samples, 10.63%)</title><rect x="995.0" y="341" width="125.4" height="15.0" fill="rgb(223,83,20)" rx="2" ry="2" />
<text  x="997.95" y="351.5" >_dl_catch_error</text>
</g>
<g >
<title>kick_ilb (8,589,608 samples, 5.02%)</title><rect x="718.3" y="229" width="59.2" height="15.0" fill="rgb(240,163,39)" rx="2" ry="2" />
<text  x="721.27" y="239.5" >kick_ilb</text>
</g>
<g >
<title>handle_pte_fault (7,560,167 samples, 4.42%)</title><rect x="345.6" y="469" width="52.2" height="15.0" fill="rgb(217,57,13)" rx="2" ry="2" />
<text  x="348.65" y="479.5" >handl..</text>
</g>
<g >
<title>do_syscall_64 (15,988,974 samples, 9.34%)</title><rect x="397.8" y="517" width="110.2" height="15.0" fill="rgb(209,20,4)" rx="2" ry="2" />
<text  x="400.76" y="527.5" >do_syscall_64</text>
</g>
<g >
<title>do_user_addr_fault (5,050,505 samples, 2.95%)</title><rect x="556.8" y="533" width="34.8" height="15.0" fill="rgb(228,108,25)" rx="2" ry="2" />
<text  x="559.81" y="543.5" >do..</text>
</g>
<g >
<title>get_page_from_freelist (7,560,167 samples, 4.42%)</title><rect x="345.6" y="373" width="52.2" height="15.0" fill="rgb(252,218,52)" rx="2" ry="2" />
<text  x="348.65" y="383.5" >get_p..</text>
</g>
<g >
<title>__handle_mm_fault (7,560,167 samples, 4.42%)</title><rect x="345.6" y="485" width="52.2" height="15.0" fill="rgb(207,9,2)" rx="2" ry="2" />
<text  x="348.65" y="495.5" >__han..</text>
</g>
<g >
<title>sched_tick (8,589,608 samples, 5.02%)</title><rect x="718.3" y="277" width="59.2" height="15.0" fill="rgb(238,155,37)" rx="2" ry="2" />
<text  x="721.27" y="287.5" >sched_..</text>
</g>
<g >
<title>__libc_start_main@@GLIBC_2.34 (5,050,505 samples, 2.95%)</title><rect x="10.0" y="565" width="34.8" height="15.0" fill="rgb(229,113,27)" rx="2" ry="2" />
<text  x="13.00" y="575.5" >__..</text>
</g>
<g >
<title>ld (53,463,033 samples, 31.23%)</title><rect x="626.4" y="597" width="368.6" height="15.0" fill="rgb(219,68,16)" rx="2" ry="2" />
<text  x="629.44" y="607.5" >ld</text>
</g>
<g >
<title>as (5,050,505 samples, 2.95%)</title><rect x="10.0" y="597" width="34.8" height="15.0" fill="rgb(244,179,42)" rx="2" ry="2" />
<text  x="13.00" y="607.5" >as</text>
</g>
<g >
<title>generic_exec_single (8,589,608 samples, 5.02%)</title><rect x="718.3" y="197" width="59.2" height="15.0" fill="rgb(234,134,32)" rx="2" ry="2" />
<text  x="721.27" y="207.5" >generi..</text>
</g>
<g >
<title>call_function_single_prep_ipi (8,589,608 samples, 5.02%)</title><rect x="718.3" y="165" width="59.2" height="15.0" fill="rgb(213,41,9)" rx="2" ry="2" />
<text  x="721.27" y="175.5" >call_f..</text>
</g>
<g >
<title>filename_lookup (15,988,974 samples, 9.34%)</title><rect x="397.8" y="453" width="110.2" height="15.0" fill="rgb(216,52,12)" rx="2" ry="2" />
<text  x="400.76" y="463.5" >filename_lookup</text>
</g>
<g >
<title>__sysvec_apic_timer_interrupt (8,589,608 samples, 5.02%)</title><rect x="718.3" y="357" width="59.2" height="15.0" fill="rgb(242,173,41)" rx="2" ry="2" />
<text  x="721.27" y="367.5" >__sysv..</text>
</g>
<g >
<title>exc_page_fault (5,050,505 samples, 2.95%)</title><rect x="556.8" y="549" width="34.8" height="15.0" fill="rgb(212,35,8)" rx="2" ry="2" />
<text  x="559.81" y="559.5" >ex..</text>
</g>
<g >
<title>__handle_mm_fault (5,050,505 samples, 2.95%)</title><rect x="1120.4" y="437" width="34.8" height="15.0" fill="rgb(207,9,2)" rx="2" ry="2" />
<text  x="1123.38" y="447.5" >__..</text>
</g>
<g >
<title>entry_SYSCALL_64_after_hwframe (15,988,974 samples, 9.34%)</title><rect x="397.8" y="533" width="110.2" height="15.0" fill="rgb(218,63,15)" rx="2" ry="2" />
<text  x="400.76" y="543.5" >entry_SYSCALL..</text>
</g>
<g >
<title>do_anonymous_page (7,560,167 samples, 4.42%)</title><rect x="345.6" y="453" width="52.2" height="15.0" fill="rgb(238,155,37)" rx="2" ry="2" />
<text  x="348.65" y="463.5" >do_an..</text>
</g>
<g >
<title>dlopen@GLIBC_2.2.5 (18,196,017 samples, 10.63%)</title><rect x="995.0" y="373" width="125.4" height="15.0" fill="rgb(226,97,23)" rx="2" ry="2" />
<text  x="997.95" y="383.5" >dlopen@GLIBC_2...</text>
</g>
<g >
<title>bfd_hash_allocate (16,685,672 samples, 9.75%)</title><rect x="777.5" y="389" width="115.0" height="15.0" fill="rgb(228,106,25)" rx="2" ry="2" />
<text  x="780.48" y="399.5" >bfd_hash_alloc..</text>
</g>
<g >
<title>do_readlinkat (15,988,974 samples, 9.34%)</title><rect x="397.8" y="469" width="110.2" height="15.0" fill="rgb(221,76,18)" rx="2" ry="2" />
<text  x="400.76" y="479.5" >do_readlinkat</text>
</g>
<g >
<title>handle_mm_fault (5,050,505 samples, 2.95%)</title><rect x="556.8" y="517" width="34.8" height="15.0" fill="rgb(234,135,32)" rx="2" ry="2" />
<text  x="559.81" y="527.5" >ha..</text>
</g>
<g >
<title>path_lookupat (15,988,974 samples, 9.34%)</title><rect x="397.8" y="437" width="110.2" height="15.0" fill="rgb(250,208,49)" rx="2" ry="2" />
<text  x="400.76" y="447.5" >path_lookupat</text>
</g>
<g >
<title>__memset_avx2_unaligned_erms (5,050,505 samples, 2.95%)</title><rect x="626.4" y="437" width="34.9" height="15.0" fill="rgb(223,84,20)" rx="2" ry="2" />
<text  x="629.44" y="447.5" >__..</text>
</g>
<g >
<title>bfd_link_hash_lookup (40,140,037 samples, 23.45%)</title><rect x="718.3" y="437" width="276.7" height="15.0" fill="rgb(241,167,39)" rx="2" ry="2" />
<text  x="721.27" y="447.5" >bfd_link_hash_lookup</text>
</g>
<g >
<title>_objalloc_alloc (16,685,672 samples, 9.75%)</title><rect x="777.5" y="373" width="115.0" height="15.0" fill="rgb(244,180,43)" rx="2" ry="2" />
<text  x="780.48" y="383.5" >_objalloc_alloc</text>
</g>
<g >
<title>inode_permission (15,988,974 samples, 9.34%)</title><rect x="397.8" y="405" width="110.2" height="15.0" fill="rgb(208,18,4)" rx="2" ry="2" />
<text  x="400.76" y="415.5" >inode_permiss..</text>
</g>
<g >
<title>__libc_start_call_main (53,463,033 samples, 31.23%)</title><rect x="626.4" y="549" width="368.6" height="15.0" fill="rgb(210,26,6)" rx="2" ry="2" />
<text  x="629.44" y="559.5" >__libc_start_call_main</text>
</g>
<g >
<title>sysvec_apic_timer_interrupt (8,589,608 samples, 5.02%)</title><rect x="718.3" y="373" width="59.2" height="15.0" fill="rgb(220,69,16)" rx="2" ry="2" />
<text  x="721.27" y="383.5" >sysvec..</text>
</g>
<g >
<title>_bfd_x86_elf_link_hash_table_create (5,050,505 samples, 2.95%)</title><rect x="626.4" y="469" width="34.9" height="15.0" fill="rgb(228,106,25)" rx="2" ry="2" />
<text  x="629.44" y="479.5" >_b..</text>
</g>
<g >
<title>[sudoers.so] (18,196,017 samples, 10.63%)</title><rect x="995.0" y="469" width="125.4" height="15.0" fill="rgb(224,88,21)" rx="2" ry="2" />
<text  x="997.95" y="479.5" >[sudoers.so]</text>
</g>
<g >
<title>vma_alloc_folio_noprof (7,560,167 samples, 4.42%)</title><rect x="345.6" y="421" width="52.2" height="15.0" fill="rgb(218,61,14)" rx="2" ry="2" />
<text  x="348.65" y="431.5" >vma_a..</text>
</g>
<g >
<title>_nl_intern_locale_data (5,050,505 samples, 2.95%)</title><rect x="1155.2" y="549" width="34.8" height="15.0" fill="rgb(233,130,31)" rx="2" ry="2" />
<text  x="1158.19" y="559.5" >_n..</text>
</g>
<g >
<title>bfd_hash_insert (25,275,280 samples, 14.76%)</title><rect x="718.3" y="421" width="174.2" height="15.0" fill="rgb(215,46,11)" rx="2" ry="2" />
<text  x="721.27" y="431.5" >bfd_hash_insert</text>
</g>
<g >
<title>[x86_64-linux-gnu-as] (5,050,505 samples, 2.95%)</title><rect x="10.0" y="517" width="34.8" height="15.0" fill="rgb(249,206,49)" rx="2" ry="2" />
<text  x="13.00" y="527.5" >[x..</text>
</g>
<g >
<title>[x86_64-linux-gnu-ld.bfd] (53,463,033 samples, 31.23%)</title><rect x="626.4" y="581" width="368.6" height="15.0" fill="rgb(240,163,39)" rx="2" ry="2" />
<text  x="629.44" y="591.5" >[x86_64-linux-gnu-ld.bfd]</text>
</g>
<g >
<title>__remove_hrtimer (8,446,050 samples, 4.93%)</title><rect x="995.0" y="53" width="58.2" height="15.0" fill="rgb(218,63,15)" rx="2" ry="2" />
<text  x="997.95" y="63.5" >__remo..</text>
</g>
<g >
<title>__readlink (15,988,974 samples, 9.34%)</title><rect x="397.8" y="549" width="110.2" height="15.0" fill="rgb(246,192,46)" rx="2" ry="2" />
<text  x="400.76" y="559.5" >__readlink</text>
</g>
<g >
<title>do_anonymous_page (5,050,505 samples, 2.95%)</title><rect x="556.8" y="469" width="34.8" height="15.0" fill="rgb(238,155,37)" rx="2" ry="2" />
<text  x="559.81" y="479.5" >do..</text>
</g>
<g >
<title>[cc1plus] (27,967,685 samples, 16.34%)</title><rect x="44.8" y="581" width="192.8" height="15.0" fill="rgb(209,20,4)" rx="2" ry="2" />
<text  x="47.81" y="591.5" >[cc1plus]</text>
</g>
<g >
<title>__GI___geteuid (5,050,505 samples, 2.95%)</title><rect x="1120.4" y="517" width="34.8" height="15.0" fill="rgb(215,46,11)" rx="2" ry="2" />
<text  x="1123.38" y="527.5" >__..</text>
</g>
<g >
<title>asm_exc_page_fault (5,050,505 samples, 2.95%)</title><rect x="626.4" y="421" width="34.9" height="15.0" fill="rgb(225,93,22)" rx="2" ry="2" />
<text  x="629.44" y="431.5" >as..</text>
</g>
<g >
<title>x64_sys_call (15,988,974 samples, 9.34%)</title><rect x="397.8" y="501" width="110.2" height="15.0" fill="rgb(247,194,46)" rx="2" ry="2" />
<text  x="400.76" y="511.5" >x64_sys_call</text>
</g>
<g >
<title>[sudo] (23,246,522 samples, 13.58%)</title><rect x="995.0" y="533" width="160.2" height="15.0" fill="rgb(213,37,9)" rx="2" ry="2" />
<text  x="997.95" y="543.5" >[sudo]</text>
</g>
<g >
<title>__libc_start_call_main (5,050,505 samples, 2.95%)</title><rect x="10.0" y="549" width="34.8" height="15.0" fill="rgb(210,26,6)" rx="2" ry="2" />
<text  x="13.00" y="559.5" >__..</text>
</g>
<g >
<title>strcmp (8,446,050 samples, 4.93%)</title><rect x="995.0" y="149" width="58.2" height="15.0" fill="rgb(217,58,13)" rx="2" ry="2" />
<text  x="997.95" y="159.5" >strcmp</text>
</g>
<g >
<title>smp_call_function_single_async (8,589,608 samples, 5.02%)</title><rect x="718.3" y="213" width="59.2" height="15.0" fill="rgb(208,14,3)" rx="2" ry="2" />
<text  x="721.27" y="223.5" >smp_ca..</text>
</g>
<g >
<title>exc_page_fault (7,560,167 samples, 4.42%)</title><rect x="345.6" y="533" width="52.2" height="15.0" fill="rgb(212,35,8)" rx="2" ry="2" />
<text  x="348.65" y="543.5" >exc_p..</text>
</g>
<g >
<title>[unknown] (5,050,505 samples, 2.95%)</title><rect x="1155.2" y="581" width="34.8" height="15.0" fill="rgb(210,24,5)" rx="2" ry="2" />
<text  x="1158.19" y="591.5" >[u..</text>
</g>
<g >
<title>_dl_open (18,196,017 samples, 10.63%)</title><rect x="995.0" y="293" width="125.4" height="15.0" fill="rgb(238,156,37)" rx="2" ry="2" />
<text  x="997.95" y="303.5" >_dl_open</text>
</g>
<g >
<title>[x86_64-linux-gnu-ld.bfd] (53,463,033 samples, 31.23%)</title><rect x="626.4" y="485" width="368.6" height="15.0" fill="rgb(240,163,39)" rx="2" ry="2" />
<text  x="629.44" y="495.5" >[x86_64-linux-gnu-ld.bfd]</text>
</g>
<g >
<title>do_fault (5,050,505 samples, 2.95%)</title><rect x="1120.4" y="405" width="34.8" height="15.0" fill="rgb(248,200,47)" rx="2" ry="2" />
<text  x="1123.38" y="415.5" >do..</text>
</g>
<g >
<title>__libc_start_main@@GLIBC_2.34 (53,463,033 samples, 31.23%)</title><rect x="626.4" y="565" width="368.6" height="15.0" fill="rgb(229,113,27)" rx="2" ry="2" />
<text  x="629.44" y="575.5" >__libc_start_main@@GLIBC_2.34</text>
</g>
<g >
<title>concat (5,050,505 samples, 2.95%)</title><rect x="202.8" y="533" width="34.8" height="15.0" fill="rgb(230,119,28)" rx="2" ry="2" />
<text  x="205.78" y="543.5" >co..</text>
</g>
<g >
<title>handle_mm_fault (7,560,167 samples, 4.42%)</title><rect x="345.6" y="501" width="52.2" height="15.0" fill="rgb(234,135,32)" rx="2" ry="2" />
<text  x="348.65" y="511.5" >handl..</text>
</g>
<g >
<title>handle_mm_fault (5,050,505 samples, 2.95%)</title><rect x="1120.4" y="453" width="34.8" height="15.0" fill="rgb(234,135,32)" rx="2" ry="2" />
<text  x="1123.38" y="463.5" >ha..</text>
</g>
<g >
<title>[unknown] (15,677,024 samples, 9.16%)</title><rect x="237.6" y="565" width="108.0" height="15.0" fill="rgb(210,24,5)" rx="2" ry="2" />
<text  x="240.59" y="575.5" >[unknown]</text>
</g>
<g >
<title>hrtimer_interrupt (8,446,050 samples, 4.93%)</title><rect x="995.0" y="85" width="58.2" height="15.0" fill="rgb(228,109,26)" rx="2" ry="2" />
<text  x="997.95" y="95.5" >hrtime..</text>
</g>
<g >
<title>do_user_addr_fault (7,560,167 samples, 4.42%)</title><rect x="345.6" y="517" width="52.2" height="15.0" fill="rgb(228,108,25)" rx="2" ry="2" />
<text  x="348.65" y="527.5" >do_us..</text>
</g>
<g >
<title>exc_page_fault (5,050,505 samples, 2.95%)</title><rect x="626.4" y="405" width="34.9" height="15.0" fill="rgb(212,35,8)" rx="2" ry="2" />
<text  x="629.44" y="415.5" >ex..</text>
</g>
<g >
<title>do_read_fault (5,050,505 samples, 2.95%)</title><rect x="1120.4" y="389" width="34.8" height="15.0" fill="rgb(223,84,20)" rx="2" ry="2" />
<text  x="1123.38" y="399.5" >do..</text>
</g>
<g >
<title>_dl_map_object (8,446,050 samples, 4.93%)</title><rect x="995.0" y="165" width="58.2" height="15.0" fill="rgb(248,199,47)" rx="2" ry="2" />
<text  x="997.95" y="175.5" >_dl_ma..</text>
</g>
<g >
<title>_dl_catch_exception (18,196,017 samples, 10.63%)</title><rect x="995.0" y="245" width="125.4" height="15.0" fill="rgb(253,223,53)" rx="2" ry="2" />
<text  x="997.95" y="255.5" >_dl_catch_excep..</text>
</g>
<g >
<title>[sudoers.so] (18,196,017 samples, 10.63%)</title><rect x="995.0" y="517" width="125.4" height="15.0" fill="rgb(224,88,21)" rx="2" ry="2" />
<text  x="997.95" y="527.5" >[sudoers.so]</text>
</g>
<g >
<title>[x86_64-linux-gnu-ld.bfd] (53,463,033 samples, 31.23%)</title><rect x="626.4" y="517" width="368.6" height="15.0" fill="rgb(240,163,39)" rx="2" ry="2" />
<text  x="629.44" y="527.5" >[x86_64-linux-gnu-ld.bfd]</text>
</g>
<g >
<title>alloc_pages_mpol (5,050,505 samples, 2.95%)</title><rect x="556.8" y="421" width="34.8" height="15.0" fill="rgb(254,227,54)" rx="2" ry="2" />
<text  x="559.81" y="431.5" >al..</text>
</g>
<g >
<title>[libpam.so.0.85.1] (18,196,017 samples, 10.63%)</title><rect x="995.0" y="421" width="125.4" height="15.0" fill="rgb(232,125,30)" rx="2" ry="2" />
<text  x="997.95" y="431.5" >[libpam.so.0.85..</text>
</g>
<g >
<title>__handle_mm_fault (5,050,505 samples, 2.95%)</title><rect x="556.8" y="501" width="34.8" height="15.0" fill="rgb(207,9,2)" rx="2" ry="2" />
<text  x="559.81" y="511.5" >__..</text>
</g>
<g >
<title>__memset_avx2_unaligned_erms (7,086,061 samples, 4.14%)</title><rect x="508.0" y="581" width="48.8" height="15.0" fill="rgb(223,84,20)" rx="2" ry="2" />
<text  x="510.97" y="591.5" >__me..</text>
</g>
<g >
<title>asm_exc_page_fault (5,050,505 samples, 2.95%)</title><rect x="1155.2" y="533" width="34.8" height="15.0" fill="rgb(225,93,22)" rx="2" ry="2" />
<text  x="1158.19" y="543.5" >as..</text>
</g>
<g >
<title>asm_sysvec_apic_timer_interrupt (8,446,050 samples, 4.93%)</title><rect x="995.0" y="133" width="58.2" height="15.0" fill="rgb(232,127,30)" rx="2" ry="2" />
<text  x="997.95" y="143.5" >asm_sy..</text>
</g>
<g >
<title>[x86_64-linux-gnu-g++-13] (5,050,505 samples, 2.95%)</title><rect x="591.6" y="581" width="34.8" height="15.0" fill="rgb(211,30,7)" rx="2" ry="2" />
<text  x="594.63" y="591.5" >[x..</text>
</g>
<g >
<title>[unknown] (5,050,505 samples, 2.95%)</title><rect x="202.8" y="549" width="34.8" height="15.0" fill="rgb(210,24,5)" rx="2" ry="2" />
<text  x="205.78" y="559.5" >[u..</text>
</g>
<g >
<title>_dl_catch_exception (8,446,050 samples, 4.93%)</title><rect x="995.0" y="197" width="58.2" height="15.0" fill="rgb(253,223,53)" rx="2" ry="2" />
<text  x="997.95" y="207.5" >_dl_ca..</text>
</g>
<g >
<title>_dlerror_run (18,196,017 samples, 10.63%)</title><rect x="995.0" y="357" width="125.4" height="15.0" fill="rgb(210,27,6)" rx="2" ry="2" />
<text  x="997.95" y="367.5" >_dlerror_run</text>
</g>
<g >
<title>get_page_from_freelist (5,050,505 samples, 2.95%)</title><rect x="556.8" y="389" width="34.8" height="15.0" fill="rgb(252,218,52)" rx="2" ry="2" />
<text  x="559.81" y="399.5" >ge..</text>
</g>
<g >
<title>clear_page_erms (5,050,505 samples, 2.95%)</title><rect x="556.8" y="373" width="34.8" height="15.0" fill="rgb(229,113,27)" rx="2" ry="2" />
<text  x="559.81" y="383.5" >cl..</text>
</g>
<g >
<title>[libpam.so.0.85.1] (18,196,017 samples, 10.63%)</title><rect x="995.0" y="389" width="125.4" height="15.0" fill="rgb(232,125,30)" rx="2" ry="2" />
<text  x="997.95" y="399.5" >[libpam.so.0.85..</text>
</g>
<g >
<title>_dl_map_object_deps (8,446,050 samples, 4.93%)</title><rect x="995.0" y="213" width="58.2" height="15.0" fill="rgb(219,68,16)" rx="2" ry="2" />
<text  x="997.95" y="223.5" >_dl_ma..</text>
</g>
<g >
<title>[libpam.so.0.85.1] (18,196,017 samples, 10.63%)</title><rect x="995.0" y="405" width="125.4" height="15.0" fill="rgb(232,125,30)" rx="2" ry="2" />
<text  x="997.95" y="415.5" >[libpam.so.0.85..</text>
</g>
<g >
<title>__libc_start_call_main (23,246,522 samples, 13.58%)</title><rect x="995.0" y="549" width="160.2" height="15.0" fill="rgb(210,26,6)" rx="2" ry="2" />
<text  x="997.95" y="559.5" >__libc_start_call_main</text>
</g>
<g >
<title>alloc_pages_mpol (7,560,167 samples, 4.42%)</title><rect x="345.6" y="405" width="52.2" height="15.0" fill="rgb(254,227,54)" rx="2" ry="2" />
<text  x="348.65" y="415.5" >alloc..</text>
</g>
<g >
<title>__hrtimer_run_queues (8,589,608 samples, 5.02%)</title><rect x="718.3" y="325" width="59.2" height="15.0" fill="rgb(237,150,35)" rx="2" ry="2" />
<text  x="721.27" y="335.5" >__hrti..</text>
</g>
<g >
<title>update_process_times (8,589,608 samples, 5.02%)</title><rect x="718.3" y="293" width="59.2" height="15.0" fill="rgb(250,209,50)" rx="2" ry="2" />
<text  x="721.27" y="303.5" >update..</text>
</g>
<g >
<title>do_user_addr_fault (5,050,505 samples, 2.95%)</title><rect x="1120.4" y="469" width="34.8" height="15.0" fill="rgb(228,108,25)" rx="2" ry="2" />
<text  x="1123.38" y="479.5" >do..</text>
</g>
<g >
<title>link_path_walk (15,988,974 samples, 9.34%)</title><rect x="397.8" y="421" width="110.2" height="15.0" fill="rgb(252,220,52)" rx="2" ry="2" />
<text  x="400.76" y="431.5" >link_path_walk</text>
</g>
<g >
<title>sudo (28,297,027 samples, 16.53%)</title><rect x="995.0" y="597" width="195.0" height="15.0" fill="rgb(251,215,51)" rx="2" ry="2" />
<text  x="997.95" y="607.5" >sudo</text>
</g>
<g >
<title>[sudo] (23,246,522 samples, 13.58%)</title><rect x="995.0" y="581" width="160.2" height="15.0" fill="rgb(213,37,9)" rx="2" ry="2" />
<text  x="997.95" y="591.5" >[sudo]</text>
</g>
<g >
<title>folio_add_file_rmap_ptes (5,050,505 samples, 2.95%)</title><rect x="1120.4" y="357" width="34.8" height="15.0" fill="rgb(225,92,22)" rx="2" ry="2" />
<text  x="1123.38" y="367.5" >fo..</text>
</g>
<g >
<title>dl_open_worker_begin (18,196,017 samples, 10.63%)</title><rect x="995.0" y="229" width="125.4" height="15.0" fill="rgb(233,129,31)" rx="2" ry="2" />
<text  x="997.95" y="239.5" >dl_open_worker_..</text>
</g>
<g >
<title>__hrtimer_run_queues (8,446,050 samples, 4.93%)</title><rect x="995.0" y="69" width="58.2" height="15.0" fill="rgb(237,150,35)" rx="2" ry="2" />
<text  x="997.95" y="79.5" >__hrti..</text>
</g>
<g >
<title>asm_exc_page_fault (5,050,505 samples, 2.95%)</title><rect x="1120.4" y="501" width="34.8" height="15.0" fill="rgb(225,93,22)" rx="2" ry="2" />
<text  x="1123.38" y="511.5" >as..</text>
</g>
<g >
<title>filemap_map_pages (5,050,505 samples, 2.95%)</title><rect x="1120.4" y="373" width="34.8" height="15.0" fill="rgb(229,112,27)" rx="2" ry="2" />
<text  x="1123.38" y="383.5" >fi..</text>
</g>
<g >
<title>[unknown] (5,050,505 samples, 2.95%)</title><rect x="1155.2" y="565" width="34.8" height="15.0" fill="rgb(210,24,5)" rx="2" ry="2" />
<text  x="1158.19" y="575.5" >[u..</text>
</g>
<g >
<title>_dl_catch_exception (18,196,017 samples, 10.63%)</title><rect x="995.0" y="277" width="125.4" height="15.0" fill="rgb(253,223,53)" rx="2" ry="2" />
<text  x="997.95" y="287.5" >_dl_catch_excep..</text>
</g>
<g >
<title>g++ (5,050,505 samples, 2.95%)</title><rect x="591.6" y="597" width="34.8" height="15.0" fill="rgb(242,173,41)" rx="2" ry="2" />
<text  x="594.63" y="607.5" >g++</text>
</g>
<g >
<title>[x86_64-linux-gnu-as] (5,050,505 samples, 2.95%)</title><rect x="10.0" y="581" width="34.8" height="15.0" fill="rgb(249,206,49)" rx="2" ry="2" />
<text  x="13.00" y="591.5" >[x..</text>
</g>
<g >
<title>hrtimer_interrupt (8,589,608 samples, 5.02%)</title><rect x="718.3" y="341" width="59.2" height="15.0" fill="rgb(228,109,26)" rx="2" ry="2" />
<text  x="721.27" y="351.5" >hrtime..</text>
</g>
<g >
<title>handle_pte_fault (5,050,505 samples, 2.95%)</title><rect x="556.8" y="485" width="34.8" height="15.0" fill="rgb(217,57,13)" rx="2" ry="2" />
<text  x="559.81" y="495.5" >ha..</text>
</g>
<g >
<title>__alloc_frozen_pages_noprof (5,050,505 samples, 2.95%)</title><rect x="556.8" y="405" width="34.8" height="15.0" fill="rgb(228,109,26)" rx="2" ry="2" />
<text  x="559.81" y="415.5" >__..</text>
</g>
<g >
<title>cc1plus (79,330,416 samples, 46.34%)</title><rect x="44.8" y="597" width="546.8" height="15.0" fill="rgb(248,198,47)" rx="2" ry="2" />
<text  x="47.81" y="607.5" >cc1plus</text>
</g>
<g >
<title>__x64_sys_readlink (15,988,974 samples, 9.34%)</title><rect x="397.8" y="485" width="110.2" height="15.0" fill="rgb(242,171,40)" rx="2" ry="2" />
<text  x="400.76" y="495.5" >__x64_sys_rea..</text>
</g>
<g >
<title>[x86_64-linux-gnu-ld.bfd] (53,463,033 samples, 31.23%)</title><rect x="626.4" y="501" width="368.6" height="15.0" fill="rgb(240,163,39)" rx="2" ry="2" />
<text  x="629.44" y="511.5" >[x86_64-linux-gnu-ld.bfd]</text>
</g>
<g >
<title>asm_exc_page_fault (5,050,505 samples, 2.95%)</title><rect x="556.8" y="565" width="34.8" height="15.0" fill="rgb(225,93,22)" rx="2" ry="2" />
<text  x="559.81" y="575.5" >as..</text>
</g>
<g >
<title>asm_exc_page_fault (7,560,167 samples, 4.42%)</title><rect x="345.6" y="549" width="52.2" height="15.0" fill="rgb(225,93,22)" rx="2" ry="2" />
<text  x="348.65" y="559.5" >asm_e..</text>
</g>
<g >
<title>lrealpath (15,988,974 samples, 9.34%)</title><rect x="397.8" y="565" width="110.2" height="15.0" fill="rgb(231,121,29)" rx="2" ry="2" />
<text  x="400.76" y="575.5" >lrealpath</text>
</g>
<g >
<title>malloc (16,685,672 samples, 9.75%)</title><rect x="777.5" y="357" width="115.0" height="15.0" fill="rgb(230,119,28)" rx="2" ry="2" />
<text  x="780.48" y="367.5" >malloc</text>
</g>
<g >
<title>do_user_addr_fault (5,050,505 samples, 2.95%)</title><rect x="626.4" y="389" width="34.9" height="15.0" fill="rgb(228,108,25)" rx="2" ry="2" />
<text  x="629.44" y="399.5" >do..</text>
</g>
<g >
<title>nohz_balancer_kick (8,589,608 samples, 5.02%)</title><rect x="718.3" y="245" width="59.2" height="15.0" fill="rgb(225,93,22)" rx="2" ry="2" />
<text  x="721.27" y="255.5" >nohz_b..</text>
</g>
<g >
<title>_dl_catch_exception (18,196,017 samples, 10.63%)</title><rect x="995.0" y="325" width="125.4" height="15.0" fill="rgb(253,223,53)" rx="2" ry="2" />
<text  x="997.95" y="335.5" >_dl_catch_excep..</text>
</g>
<g >
<title>exc_page_fault (5,050,505 samples, 2.95%)</title><rect x="1120.4" y="485" width="34.8" height="15.0" fill="rgb(212,35,8)" rx="2" ry="2" />
<text  x="1123.38" y="495.5" >ex..</text>
</g>
<g >
<title>[sudoers.so] (18,196,017 samples, 10.63%)</title><rect x="995.0" y="501" width="125.4" height="15.0" fill="rgb(224,88,21)" rx="2" ry="2" />
<text  x="997.95" y="511.5" >[sudoers.so]</text>
</g>
<g >
<title>vma_alloc_folio_noprof (5,050,505 samples, 2.95%)</title><rect x="556.8" y="437" width="34.8" height="15.0" fill="rgb(218,61,14)" rx="2" ry="2" />
<text  x="559.81" y="447.5" >vm..</text>
</g>
<g >
<title>__sysvec_apic_timer_interrupt (8,446,050 samples, 4.93%)</title><rect x="995.0" y="101" width="58.2" height="15.0" fill="rgb(242,173,41)" rx="2" ry="2" />
<text  x="997.95" y="111.5" >__sysv..</text>
</g>
<g >
<title>bfd_hash_lookup (14,864,757 samples, 8.68%)</title><rect x="892.5" y="421" width="102.5" height="15.0" fill="rgb(232,127,30)" rx="2" ry="2" />
<text  x="895.49" y="431.5" >bfd_hash_loo..</text>
</g>
<g >
<title>_bfd_x86_elf_link_hash_newfunc (25,275,280 samples, 14.76%)</title><rect x="718.3" y="405" width="174.2" height="15.0" fill="rgb(211,28,6)" rx="2" ry="2" />
<text  x="721.27" y="415.5" >_bfd_x86_elf_link_hash..</text>
</g>
<g >
<title>[libpam.so.0.85.1] (18,196,017 samples, 10.63%)</title><rect x="995.0" y="453" width="125.4" height="15.0" fill="rgb(232,125,30)" rx="2" ry="2" />
<text  x="997.95" y="463.5" >[libpam.so.0.85..</text>
</g>
<g >
<title>gcc::dump_manager::dump_register (5,050,505 samples, 2.95%)</title><rect x="556.8" y="581" width="34.8" height="15.0" fill="rgb(248,199,47)" rx="2" ry="2" />
<text  x="559.81" y="591.5" >gc..</text>
</g>
<g >
<title>_cpp_lex_direct (15,677,024 samples, 9.16%)</title><rect x="237.6" y="549" width="108.0" height="15.0" fill="rgb(208,16,3)" rx="2" ry="2" />
<text  x="240.59" y="559.5" >_cpp_lex_direct</text>
</g>
<g >
<title>[x86_64-linux-gnu-ld.bfd] (53,463,033 samples, 31.23%)</title><rect x="626.4" y="533" width="368.6" height="15.0" fill="rgb(240,163,39)" rx="2" ry="2" />
<text  x="629.44" y="543.5" >[x86_64-linux-gnu-ld.bfd]</text>
</g>
<g >
<title>tick_nohz_handler (8,589,608 samples, 5.02%)</title><rect x="718.3" y="309" width="59.2" height="15.0" fill="rgb(248,200,48)" rx="2" ry="2" />
<text  x="721.27" y="319.5" >tick_n..</text>
</g>
<g >
<title>rb_next (8,446,050 samples, 4.93%)</title><rect x="995.0" y="37" width="58.2" height="15.0" fill="rgb(242,173,41)" rx="2" ry="2" />
<text  x="997.95" y="47.5" >rb_next</text>
</g>
<g >
<title>bfd_elf_link_add_symbols (48,412,528 samples, 28.28%)</title><rect x="661.3" y="469" width="333.7" height="15.0" fill="rgb(246,189,45)" rx="2" ry="2" />
<text  x="664.25" y="479.5" >bfd_elf_link_add_symbols</text>
</g>
<g >
<title>alloc_anon_folio (7,560,167 samples, 4.42%)</title><rect x="345.6" y="437" width="52.2" height="15.0" fill="rgb(223,86,20)" rx="2" ry="2" />
<text  x="348.65" y="447.5" >alloc..</text>
</g>
<g >
<title>__libc_start_main@@GLIBC_2.34 (23,246,522 samples, 13.58%)</title><rect x="995.0" y="565" width="160.2" height="15.0" fill="rgb(229,113,27)" rx="2" ry="2" />
<text  x="997.95" y="575.5" >__libc_start_main@@G..</text>
</g>
<g >
<title>[libbfd-2.42-system.so] (48,412,528 samples, 28.28%)</title><rect x="661.3" y="453" width="333.7" height="15.0" fill="rgb(237,147,35)" rx="2" ry="2" />
<text  x="664.25" y="463.5" >[libbfd-2.42-system.so]</text>
</g>
<g >
<title>alloc_anon_folio (5,050,505 samples, 2.95%)</title><rect x="556.8" y="453" width="34.8" height="15.0" fill="rgb(223,86,20)" rx="2" ry="2" />
<text  x="559.81" y="463.5" >al..</text>
</g>
<g >
<title>htab_create_alloc (5,050,505 samples, 2.95%)</title><rect x="626.4" y="453" width="34.9" height="15.0" fill="rgb(219,68,16)" rx="2" ry="2" />
<text  x="629.44" y="463.5" >ht..</text>
</g>
<g >
<title>clear_page_erms (7,560,167 samples, 4.42%)</title><rect x="345.6" y="357" width="52.2" height="15.0" fill="rgb(229,113,27)" rx="2" ry="2" />
<text  x="348.65" y="367.5" >clear..</text>
</g>
<g >
<title>[x86_64-linux-gnu-as] (5,050,505 samples, 2.95%)</title><rect x="10.0" y="501" width="34.8" height="15.0" fill="rgb(249,206,49)" rx="2" ry="2" />
<text  x="13.00" y="511.5" >[x..</text>
</g>
<g >
<title>[libpam.so.0.85.1] (18,196,017 samples, 10.63%)</title><rect x="995.0" y="437" width="125.4" height="15.0" fill="rgb(232,125,30)" rx="2" ry="2" />
<text  x="997.95" y="447.5" >[libpam.so.0.85..</text>
</g>
<g >
<title>[unknown] (5,050,505 samples, 2.95%)</title><rect x="202.8" y="565" width="34.8" height="15.0" fill="rgb(210,24,5)" rx="2" ry="2" />
<text  x="205.78" y="575.5" >[u..</text>
</g>
<g >
<title>openaux (8,446,050 samples, 4.93%)</title><rect x="995.0" y="181" width="58.2" height="15.0" fill="rgb(252,217,52)" rx="2" ry="2" />
<text  x="997.95" y="191.5" >openaux</text>
</g>
<g >
<title>asm_exc_page_fault (16,685,672 samples, 9.75%)</title><rect x="777.5" y="325" width="115.0" height="15.0" fill="rgb(225,93,22)" rx="2" ry="2" />
<text  x="780.48" y="335.5" >asm_exc_page_f..</text>
</g>
<g >
<title>[unknown] (39,226,165 samples, 22.91%)</title><rect x="237.6" y="581" width="270.4" height="15.0" fill="rgb(210,24,5)" rx="2" ry="2" />
<text  x="240.59" y="591.5" >[unknown]</text>
</g>
<g >
<title>strcmp (9,749,967 samples, 5.70%)</title><rect x="1053.2" y="213" width="67.2" height="15.0" fill="rgb(217,58,13)" rx="2" ry="2" />
<text  x="1056.17" y="223.5" >strcmp</text>
</g>
<g >
<title>dlopen_doit (18,196,017 samples, 10.63%)</title><rect x="995.0" y="309" width="125.4" height="15.0" fill="rgb(211,31,7)" rx="2" ry="2" />
<text  x="997.95" y="319.5" >dlopen_doit</text>
</g>
<g >
<title>handle_pte_fault (5,050,505 samples, 2.95%)</title><rect x="1120.4" y="421" width="34.8" height="15.0" fill="rgb(217,57,13)" rx="2" ry="2" />
<text  x="1123.38" y="431.5" >ha..</text>
</g>
<g >
<title>dl_open_worker (18,196,017 samples, 10.63%)</title><rect x="995.0" y="261" width="125.4" height="15.0" fill="rgb(236,145,34)" rx="2" ry="2" />
<text  x="997.95" y="271.5" >dl_open_worker</text>
</g>
<g >
<title>handle_mm_fault (5,050,505 samples, 2.95%)</title><rect x="626.4" y="373" width="34.9" height="15.0" fill="rgb(234,135,32)" rx="2" ry="2" />
<text  x="629.44" y="383.5" >ha..</text>
</g>
<g >
<title>all (171,191,486 samples, 100%)</title><rect x="10.0" y="613" width="1180.0" height="15.0" fill="rgb(213,39,9)" rx="2" ry="2" />
<text  x="13.00" y="623.5" ></text>
</g>
<g >
<title>_int_malloc (16,685,672 samples, 9.75%)</title><rect x="777.5" y="341" width="115.0" height="15.0" fill="rgb(215,47,11)" rx="2" ry="2" />
<text  x="780.48" y="351.5" >_int_malloc</text>
</g>
<g >
<title>__smp_call_single_queue (8,589,608 samples, 5.02%)</title><rect x="718.3" y="181" width="59.2" height="15.0" fill="rgb(219,66,15)" rx="2" ry="2" />
<text  x="721.27" y="191.5" >__smp_..</text>
</g>
<g >
<title>__handle_mm_fault (5,050,505 samples, 2.95%)</title><rect x="626.4" y="357" width="34.9" height="15.0" fill="rgb(207,9,2)" rx="2" ry="2" />
<text  x="629.44" y="367.5" >__..</text>
</g>
<g >
<title>__alloc_frozen_pages_noprof (7,560,167 samples, 4.42%)</title><rect x="345.6" y="389" width="52.2" height="15.0" fill="rgb(228,109,26)" rx="2" ry="2" />
<text  x="348.65" y="399.5" >__all..</text>
</g>
<g >
<title>[sudoers.so] (18,196,017 samples, 10.63%)</title><rect x="995.0" y="485" width="125.4" height="15.0" fill="rgb(224,88,21)" rx="2" ry="2" />
<text  x="997.95" y="495.5" >[sudoers.so]</text>
</g>
<g >
<title>asm_sysvec_apic_timer_interrupt (8,589,608 samples, 5.02%)</title><rect x="718.3" y="389" width="59.2" height="15.0" fill="rgb(232,127,30)" rx="2" ry="2" />
<text  x="721.27" y="399.5" >asm_sy..</text>
</g>
<g >
<title>[x86_64-linux-gnu-as] (5,050,505 samples, 2.95%)</title><rect x="10.0" y="533" width="34.8" height="15.0" fill="rgb(249,206,49)" rx="2" ry="2" />
<text  x="13.00" y="543.5" >[x..</text>
</g>
<g >
<title>__memmove_avx_unaligned_erms (7,560,167 samples, 4.42%)</title><rect x="345.6" y="565" width="52.2" height="15.0" fill="rgb(205,0,0)" rx="2" ry="2" />
<text  x="348.65" y="575.5" >__mem..</text>
</g>
<g >
<title>sched_balance_trigger (8,589,608 samples, 5.02%)</title><rect x="718.3" y="261" width="59.2" height="15.0" fill="rgb(213,38,9)" rx="2" ry="2" />
<text  x="721.27" y="271.5" >sched_..</text>
</g>
</g>
</svg>
